<?xml version="1.0" standalone="no"?>
<!DOCTYPE svg PUBLIC "-//W3C//DTD SVG 1.0//EN" "http://www.w3.org/TR/2001/REC-SVG-20010904/DTD/svg10.dtd">
<svg xmlns="http://www.w3.org/2000/svg" xmlns:xlink="http://www.w3.org/1999/xlink" id="body_1" width="30" height="30">

<g transform="matrix(0.059586823 0 0 0.059586823 0 0)">
    <path d="M192 72.533C 140.8 72.533 89.6 85.333 89.6 123.733C 89.6 162.133 21.333 183.466 21.333 226.133C 21.333 268.8 102.4 307.2 102.4 328.533C 102.4 349.86597 64 341.33298 64 379.733C 64 418.13303 123.733 430.933 149.33301 430.933C 174.93301 430.933 311.466 430.933 345.6 430.933C 379.734 430.933 405.333 409.6 405.333 379.733C 405.333 349.866 371.2 349.866 371.2 328.533C 371.2 307.19998 486.40002 285.866 486.40002 226.133C 486.40002 157.866 409.60004 72.53299 345.60004 72.53299C 281.60004 72.53299 243.2 72.533 192 72.533z" stroke="none" fill="#ECF4F7" fill-rule="nonzero" />
    <path d="M362.667 435.2L140.8 435.2C 138.24 435.2 136.533 433.493 136.533 430.933C 136.533 428.37302 138.24 426.66602 140.8 426.66602L140.8 426.66602L362.667 426.66602C 365.227 426.66602 366.934 428.37302 366.934 430.933C 366.933 433.493 365.227 435.2 362.667 435.2zM413.867 384L243.2 384C 240.64 384 238.933 382.293 238.933 379.733C 238.933 377.173 240.64 375.466 243.2 375.466L243.2 375.466L413.867 375.466C 416.427 375.466 418.134 377.173 418.134 379.733C 418.133 382.293 416.427 384 413.867 384zM209.067 384L55.466995 384C 52.906994 384 51.199997 382.293 51.199997 379.733C 51.199997 377.173 52.906998 375.466 55.466995 375.466L55.466995 375.466L209.067 375.466C 211.627 375.466 213.334 377.173 213.334 379.733C 213.333 382.293 211.627 384 209.067 384zM379.733 332.8L192 332.8C 189.44 332.8 187.733 331.093 187.733 328.533C 187.733 325.973 189.44 324.266 192 324.266L192 324.266L379.733 324.266C 382.293 324.266 384 325.973 384 328.533C 384 331.093 382.293 332.8 379.733 332.8zM157.867 332.8L89.6 332.8C 87.04 332.8 85.333 331.093 85.333 328.533C 85.333 325.973 87.04 324.266 89.6 324.266L89.6 324.266L157.867 324.266C 160.427 324.266 162.134 325.973 162.134 328.533C 162.133 331.093 160.427 332.8 157.867 332.8zM465.067 281.6L277.333 281.6C 274.773 281.6 273.066 279.893 273.066 277.333C 273.066 274.773 274.773 273.066 277.333 273.066L277.333 273.066L465.066 273.066C 467.626 273.066 469.333 274.773 469.333 277.333C 469.333 279.893 467.627 281.6 465.067 281.6zM243.2 281.6L55.467 281.6C 52.906998 281.6 51.199997 279.893 51.199997 277.333C 51.199997 274.773 52.906998 273.066 55.466995 273.066L55.466995 273.066L243.2 273.066C 245.76 273.066 247.467 274.773 247.467 277.333C 247.467 279.893 245.76 281.6 243.2 281.6zM499.2 230.4L140.8 230.4C 138.24 230.4 136.533 228.693 136.533 226.133C 136.533 223.573 138.24 221.866 140.8 221.866L140.8 221.866L499.2 221.866C 501.76 221.866 503.467 223.573 503.467 226.133C 503.467 228.693 501.76 230.4 499.2 230.4zM106.667 230.4L4.267 230.4C 1.7070003 230.4 0 228.693 0 226.133C 0 223.573 1.707 221.866 4.267 221.866L4.267 221.866L106.667 221.866C 109.227 221.866 110.934 223.573 110.934 226.133C 110.934 228.693 109.227 230.4 106.667 230.4zM413.867 179.2L345.6 179.2C 343.04 179.2 341.333 177.493 341.333 174.933C 341.333 172.373 343.04 170.666 345.6 170.666L345.6 170.666L413.867 170.666C 416.427 170.666 418.134 172.373 418.134 174.933C 418.133 177.493 416.427 179.2 413.867 179.2zM311.467 179.2L38.4 179.2C 35.84 179.2 34.133003 177.493 34.133003 174.933C 34.133003 172.373 35.840004 170.666 38.4 170.666L38.4 170.666L311.46698 170.666C 314.02698 170.666 315.73398 172.373 315.73398 174.933C 315.733 177.493 314.027 179.2 311.467 179.2zM430.933 128L243.2 128C 240.64 128 238.933 126.293 238.933 123.733C 238.933 121.173004 240.64 119.466 243.2 119.466L243.2 119.466L430.93298 119.466C 433.49298 119.466 435.19998 121.173004 435.19998 123.733C 435.2 126.293 433.493 128 430.933 128zM209.067 128L89.6 128C 87.04 128 85.333 126.293 85.333 123.733C 85.333 121.173004 87.04 119.466 89.6 119.466L89.6 119.466L209.067 119.466C 211.627 119.466 213.334 121.173004 213.334 123.733C 213.333 126.293 211.627 128 209.067 128zM396.8 76.8L174.933 76.8C 172.373 76.8 170.666 75.093 170.666 72.533005C 170.666 69.97301 172.373 68.26601 174.933 68.26601L174.933 68.26601L396.8 68.26601C 399.36 68.26601 401.067 69.97301 401.067 72.533005C 401.067 75.093 399.36 76.8 396.8 76.8z" stroke="none" fill="#51565F" fill-rule="nonzero" />
	<g>
	</g>
	<g>
	</g>
	<g>
	</g>
	<g>
	</g>
	<g>
	</g>
	<g>
	</g>
	<g>
	</g>
	<g>
	</g>
	<g>
	</g>
	<g>
	</g>
	<g>
	</g>
	<g>
	</g>
	<g>
	</g>
	<g>
	</g>
	<g>
	</g>
</g>
</svg>