<svg xmlns:xlink="http://www.w3.org/1999/xlink" xmlns="http://www.w3.org/2000/svg" viewBox="0 0 40 40" width="40" height="40" preserveAspectRatio="xMidYMid meet" style="width: 100%; height: 100%; transform: translate3d(0px, 0px, 0px);"><defs><clipPath id="__lottie_element_2"><rect width="40" height="40" x="0" y="0"></rect></clipPath><clipPath id="__lottie_element_7"><path fill="#ffffff" clip-rule="nonzero" d=" M19.937999725341797,10.062999725341797 C14.449999809265137,10.062999725341797 10,14.524999618530273 10,20.0310001373291 C10,25.53700065612793 14.449999809265137,30 19.937999725341797,30 C25.426000595092773,30 29.875,25.53700065612793 29.875,20.0310001373291 C29.875,14.524999618530273 25.426000595092773,10.062999725341797 19.937999725341797,10.062999725341797" fill-opacity="1"></path></clipPath></defs><g clip-path="url(#__lottie_element_2)"><g transform="matrix(0.9352785348892212,0.3539125323295593,-0.3539125323295593,0.9352785348892212,8.3726806640625,-5.783821105957031)" opacity="1" style="display: block;"><g opacity="1" transform="matrix(1,0,0,1,20,20)"><path fill="#FFEEA3" fill-opacity="1" d=" M-2.1559998989105225,13.569999694824219 C-2.1559998989105225,13.569999694824219 -2.4040000438690186,13.527000427246094 -2.4040000438690186,13.527000427246094 C-3.1670000553131104,13.390999794006348 -3.933000087738037,13.185999870300293 -4.681000232696533,12.914999961853027 C-4.681000232696533,12.914999961853027 -4.916999816894531,12.829999923706055 -4.916999816894531,12.829999923706055 C-4.916999816894531,12.829999923706055 -8.940999984741211,15.487000465393066 -8.940999984741211,15.487000465393066 C-8.940999984741211,15.487000465393066 -8.652999877929688,10.682000160217285 -8.652999877929688,10.682000160217285 C-8.652999877929688,10.682000160217285 -8.845000267028809,10.520999908447266 -8.845000267028809,10.520999908447266 C-9.449000358581543,10.01200008392334 -10.01200008392334,9.449000358581543 -10.520999908447266,8.843999862670898 C-10.520999908447266,8.843999862670898 -10.682999610900879,8.652999877929688 -10.682999610900879,8.652999877929688 C-10.682999610900879,8.652999877929688 -15.487000465393066,8.940999984741211 -15.487000465393066,8.940999984741211 C-15.487000465393066,8.940999984741211 -12.829999923706055,4.916999816894531 -12.829999923706055,4.916999816894531 C-12.829999923706055,4.916999816894531 -12.914999961853027,4.678999900817871 -12.914999961853027,4.678999900817871 C-13.185999870300293,3.930999994277954 -13.392000198364258,3.1670000553131104 -13.527000427246094,2.4040000438690186 C-13.527000427246094,2.4040000438690186 -13.569999694824219,2.1559998989105225 -13.569999694824219,2.1559998989105225 C-13.569999694824219,2.1559998989105225 -17.881999969482422,0 -17.881999969482422,0 C-17.881999969482422,0 -13.569999694824219,-2.1559998989105225 -13.569999694824219,-2.1559998989105225 C-13.569999694824219,-2.1559998989105225 -13.527000427246094,-2.4040000438690186 -13.527000427246094,-2.4040000438690186 C-13.392000198364258,-3.1670000553131104 -13.187000274658203,-3.933000087738037 -12.914999961853027,-4.681000232696533 C-12.914999961853027,-4.681000232696533 -12.829999923706055,-4.916999816894531 -12.829999923706055,-4.916999816894531 C-12.829999923706055,-4.916999816894531 -15.487000465393066,-8.940999984741211 -15.487000465393066,-8.940999984741211 C-15.487000465393066,-8.940999984741211 -10.682999610900879,-8.652999877929688 -10.682999610900879,-8.652999877929688 C-10.682999610900879,-8.652999877929688 -10.520999908447266,-8.845999717712402 -10.520999908447266,-8.845999717712402 C-10.012999534606934,-9.449999809265137 -9.449000358581543,-10.012999534606934 -8.845000267028809,-10.520999908447266 C-8.845000267028809,-10.520999908447266 -8.652999877929688,-10.682999610900879 -8.652999877929688,-10.682999610900879 C-8.652999877929688,-10.682999610900879 -8.940999984741211,-15.487000465393066 -8.940999984741211,-15.487000465393066 C-8.940999984741211,-15.487000465393066 -4.916999816894531,-12.829999923706055 -4.916999816894531,-12.829999923706055 C-4.916999816894531,-12.829999923706055 -4.681000232696533,-12.914999961853027 -4.681000232696533,-12.914999961853027 C-3.933000087738037,-13.185999870300293 -3.1670000553131104,-13.392000198364258 -2.4040000438690186,-13.527000427246094 C-2.4040000438690186,-13.527000427246094 -2.1559998989105225,-13.569999694824219 -2.1559998989105225,-13.569999694824219 C-2.1559998989105225,-13.569999694824219 0,-17.881999969482422 0,-17.881999969482422 C0,-17.881999969482422 2.1559998989105225,-13.569999694824219 2.1559998989105225,-13.569999694824219 C2.1559998989105225,-13.569999694824219 2.4040000438690186,-13.527000427246094 2.4040000438690186,-13.527000427246094 C3.1670000553131104,-13.392000198364258 3.931999921798706,-13.187000274658203 4.679999828338623,-12.914999961853027 C4.679999828338623,-12.914999961853027 4.916999816894531,-12.829999923706055 4.916999816894531,-12.829999923706055 C4.916999816894531,-12.829999923706055 8.940999984741211,-15.487000465393066 8.940999984741211,-15.487000465393066 C8.940999984741211,-15.487000465393066 8.652999877929688,-10.682999610900879 8.652999877929688,-10.682999610900879 C8.652999877929688,-10.682999610900879 8.843999862670898,-10.520999908447266 8.843999862670898,-10.520999908447266 C9.449000358581543,-10.012999534606934 10.01099967956543,-9.449999809265137 10.520999908447266,-8.845999717712402 C10.520999908447266,-8.845999717712402 10.682000160217285,-8.652999877929688 10.682000160217285,-8.652999877929688 C10.682000160217285,-8.652999877929688 15.487000465393066,-8.940999984741211 15.487000465393066,-8.940999984741211 C15.487000465393066,-8.940999984741211 12.829999923706055,-4.916999816894531 12.829999923706055,-4.916999816894531 C12.829999923706055,-4.916999816894531 12.914999961853027,-4.681000232696533 12.914999961853027,-4.681000232696533 C13.1850004196167,-3.933000087738037 13.390999794006348,-3.1670000553131104 13.527000427246094,-2.4040000438690186 C13.527000427246094,-2.4040000438690186 13.569999694824219,-2.1559998989105225 13.569999694824219,-2.1559998989105225 C13.569999694824219,-2.1559998989105225 17.881999969482422,0 17.881999969482422,0 C17.881999969482422,0 13.569999694824219,2.1559998989105225 13.569999694824219,2.1559998989105225 C13.569999694824219,2.1559998989105225 13.527000427246094,2.4040000438690186 13.527000427246094,2.4040000438690186 C13.390999794006348,3.1670000553131104 13.1850004196167,3.931999921798706 12.914999961853027,4.678999900817871 C12.914999961853027,4.678999900817871 12.829999923706055,4.915999889373779 12.829999923706055,4.915999889373779 C12.829999923706055,4.915999889373779 15.487000465393066,8.9399995803833 15.487000465393066,8.9399995803833 C15.487000465393066,8.9399995803833 10.682000160217285,8.652000427246094 10.682000160217285,8.652000427246094 C10.682000160217285,8.652000427246094 10.520999908447266,8.843000411987305 10.520999908447266,8.843000411987305 C10.01200008392334,9.447999954223633 9.449000358581543,10.010000228881836 8.843999862670898,10.519000053405762 C8.843999862670898,10.519000053405762 8.652999877929688,10.680999755859375 8.652999877929688,10.680999755859375 C8.652999877929688,10.680999755859375 8.940999984741211,15.486000061035156 8.940999984741211,15.486000061035156 C8.940999984741211,15.486000061035156 4.916999816894531,12.829000473022461 4.916999816894531,12.829000473022461 C4.916999816894531,12.829000473022461 4.679999828338623,12.913999557495117 4.679999828338623,12.913999557495117 C3.931999921798706,13.184000015258789 3.1670000553131104,13.390000343322754 2.4040000438690186,13.526000022888184 C2.4040000438690186,13.526000022888184 2.1559998989105225,13.569000244140625 2.1559998989105225,13.569000244140625 C2.1559998989105225,13.569000244140625 0,17.881999969482422 0,17.881999969482422 C0,17.881999969482422 -2.1559998989105225,13.569999694824219 -2.1559998989105225,13.569999694824219z"></path></g><g opacity="1" transform="matrix(1,0,0,1,20,20)"><path fill="#BA9B48" fill-opacity="1" d=" M0,-16.763999938964844 C0,-16.763999938964844 1.5959999561309814,-13.571999549865723 1.5959999561309814,-13.571999549865723 C1.5959999561309814,-13.571999549865723 1.8209999799728394,-13.121999740600586 1.8209999799728394,-13.121999740600586 C1.8209999799728394,-13.121999740600586 2.315999984741211,-13.034000396728516 2.315999984741211,-13.034000396728516 C3.052000045776367,-12.904000282287598 3.7899999618530273,-12.706000328063965 4.508999824523926,-12.444999694824219 C4.508999824523926,-12.444999694824219 4.980999946594238,-12.27400016784668 4.980999946594238,-12.27400016784668 C4.980999946594238,-12.27400016784668 5.400000095367432,-12.550999641418457 5.400000095367432,-12.550999641418457 C5.400000095367432,-12.550999641418457 8.380000114440918,-14.519000053405762 8.380000114440918,-14.519000053405762 C8.380000114440918,-14.519000053405762 8.166999816894531,-10.96399974822998 8.166999816894531,-10.96399974822998 C8.166999816894531,-10.96399974822998 8.13700008392334,-10.461999893188477 8.13700008392334,-10.461999893188477 C8.13700008392334,-10.461999893188477 8.520999908447266,-10.137999534606934 8.520999908447266,-10.137999534606934 C9.102999687194824,-9.64900016784668 9.645999908447266,-9.104999542236328 10.13599967956543,-8.52299976348877 C10.13599967956543,-8.52299976348877 10.458999633789062,-8.138999938964844 10.458999633789062,-8.138999938964844 C10.458999633789062,-8.138999938964844 10.960000038146973,-8.168999671936035 10.960000038146973,-8.168999671936035 C10.960000038146973,-8.168999671936035 14.515000343322754,-8.381999969482422 14.515000343322754,-8.381999969482422 C14.515000343322754,-8.381999969482422 12.54699993133545,-5.4019999504089355 12.54699993133545,-5.4019999504089355 C12.54699993133545,-5.4019999504089355 12.270000457763672,-4.982999801635742 12.270000457763672,-4.982999801635742 C12.270000457763672,-4.982999801635742 12.440999984741211,-4.511000156402588 12.440999984741211,-4.511000156402588 C12.70199966430664,-3.7920000553131104 12.899999618530273,-3.053999900817871 13.029999732971191,-2.318000078201294 C13.029999732971191,-2.318000078201294 13.118000030517578,-1.8229999542236328 13.118000030517578,-1.8229999542236328 C13.118000030517578,-1.8229999542236328 13.567999839782715,-1.5980000495910645 13.567999839782715,-1.5980000495910645 C13.567999839782715,-1.5980000495910645 16.763999938964844,0 16.763999938964844,0 C16.763999938964844,0 13.571999549865723,1.5959999561309814 13.571999549865723,1.5959999561309814 C13.571999549865723,1.5959999561309814 13.121999740600586,1.8209999799728394 13.121999740600586,1.8209999799728394 C13.121999740600586,1.8209999799728394 13.034000396728516,2.315999984741211 13.034000396728516,2.315999984741211 C12.904000282287598,3.052000045776367 12.706000328063965,3.7899999618530273 12.444999694824219,4.508999824523926 C12.444999694824219,4.508999824523926 12.27400016784668,4.980999946594238 12.27400016784668,4.980999946594238 C12.27400016784668,4.980999946594238 12.550999641418457,5.400000095367432 12.550999641418457,5.400000095367432 C12.550999641418457,5.400000095367432 14.519000053405762,8.380000114440918 14.519000053405762,8.380000114440918 C14.519000053405762,8.380000114440918 10.96399974822998,8.166999816894531 10.96399974822998,8.166999816894531 C10.96399974822998,8.166999816894531 10.461999893188477,8.13700008392334 10.461999893188477,8.13700008392334 C10.461999893188477,8.13700008392334 10.137999534606934,8.520999908447266 10.137999534606934,8.520999908447266 C9.64900016784668,9.10200023651123 9.104999542236328,9.645999908447266 8.52299976348877,10.13599967956543 C8.52299976348877,10.13599967956543 8.138999938964844,10.460000038146973 8.138999938964844,10.460000038146973 C8.138999938964844,10.460000038146973 8.168999671936035,10.961000442504883 8.168999671936035,10.961000442504883 C8.168999671936035,10.961000442504883 8.381999969482422,14.515999794006348 8.381999969482422,14.515999794006348 C8.381999969482422,14.515999794006348 5.4019999504089355,12.54800033569336 5.4019999504089355,12.54800033569336 C5.4019999504089355,12.54800033569336 4.982999801635742,12.270999908447266 4.982999801635742,12.270999908447266 C4.982999801635742,12.270999908447266 4.511000156402588,12.442000389099121 4.511000156402588,12.442000389099121 C3.7920000553131104,12.70300006866455 3.053999900817871,12.901000022888184 2.318000078201294,13.031000137329102 C2.318000078201294,13.031000137329102 1.8229999542236328,13.119000434875488 1.8229999542236328,13.119000434875488 C1.8229999542236328,13.119000434875488 1.5980000495910645,13.569000244140625 1.5980000495910645,13.569000244140625 C1.5980000495910645,13.569000244140625 0,16.763999938964844 0,16.763999938964844 C0,16.763999938964844 -1.5959999561309814,13.571999549865723 -1.5959999561309814,13.571999549865723 C-1.5959999561309814,13.571999549865723 -1.8209999799728394,13.121999740600586 -1.8209999799728394,13.121999740600586 C-1.8209999799728394,13.121999740600586 -2.315999984741211,13.034000396728516 -2.315999984741211,13.034000396728516 C-3.052000045776367,12.904000282287598 -3.7899999618530273,12.706000328063965 -4.508999824523926,12.444999694824219 C-4.508999824523926,12.444999694824219 -4.980999946594238,12.27400016784668 -4.980999946594238,12.27400016784668 C-4.980999946594238,12.27400016784668 -5.400000095367432,12.550999641418457 -5.400000095367432,12.550999641418457 C-5.400000095367432,12.550999641418457 -8.380000114440918,14.519000053405762 -8.380000114440918,14.519000053405762 C-8.380000114440918,14.519000053405762 -8.166999816894531,10.96399974822998 -8.166999816894531,10.96399974822998 C-8.166999816894531,10.96399974822998 -8.13700008392334,10.463000297546387 -8.13700008392334,10.463000297546387 C-8.13700008392334,10.463000297546387 -8.520999908447266,10.138999938964844 -8.520999908447266,10.138999938964844 C-9.102999687194824,9.64900016784668 -9.647000312805176,9.104999542236328 -10.13599967956543,8.52400016784668 C-10.13599967956543,8.52400016784668 -10.460000038146973,8.140000343322754 -10.460000038146973,8.140000343322754 C-10.460000038146973,8.140000343322754 -10.961999893188477,8.170000076293945 -10.961999893188477,8.170000076293945 C-10.961999893188477,8.170000076293945 -14.517000198364258,8.383000373840332 -14.517000198364258,8.383000373840332 C-14.517000198364258,8.383000373840332 -12.548999786376953,5.4029998779296875 -12.548999786376953,5.4029998779296875 C-12.548999786376953,5.4029998779296875 -12.272000312805176,4.984000205993652 -12.272000312805176,4.984000205993652 C-12.272000312805176,4.984000205993652 -12.444999694824219,4.510000228881836 -12.444999694824219,4.510000228881836 C-12.706000328063965,3.7909998893737793 -12.904000282287598,3.052999973297119 -13.034000396728516,2.316999912261963 C-13.034000396728516,2.316999912261963 -13.121999740600586,1.8220000267028809 -13.121999740600586,1.8220000267028809 C-13.121999740600586,1.8220000267028809 -13.571999549865723,1.597000002861023 -13.571999549865723,1.597000002861023 C-13.571999549865723,1.597000002861023 -16.763999938964844,0 -16.763999938964844,0 C-16.763999938964844,0 -13.571999549865723,-1.5959999561309814 -13.571999549865723,-1.5959999561309814 C-13.571999549865723,-1.5959999561309814 -13.121999740600586,-1.8209999799728394 -13.121999740600586,-1.8209999799728394 C-13.121999740600586,-1.8209999799728394 -13.034000396728516,-2.315999984741211 -13.034000396728516,-2.315999984741211 C-12.904000282287598,-3.052000045776367 -12.706000328063965,-3.7899999618530273 -12.444999694824219,-4.508999824523926 C-12.444999694824219,-4.508999824523926 -12.27400016784668,-4.980999946594238 -12.27400016784668,-4.980999946594238 C-12.27400016784668,-4.980999946594238 -12.550000190734863,-5.4019999504089355 -12.550000190734863,-5.4019999504089355 C-12.550000190734863,-5.4019999504089355 -14.517999649047852,-8.381999969482422 -14.517999649047852,-8.381999969482422 C-14.517999649047852,-8.381999969482422 -10.963000297546387,-8.168999671936035 -10.963000297546387,-8.168999671936035 C-10.963000297546387,-8.168999671936035 -10.461999893188477,-8.138999938964844 -10.461999893188477,-8.138999938964844 C-10.461999893188477,-8.138999938964844 -10.137999534606934,-8.52299976348877 -10.137999534606934,-8.52299976348877 C-9.64799976348877,-9.104999542236328 -9.104999542236328,-9.64799976348877 -8.52299976348877,-10.137999534606934 C-8.52299976348877,-10.137999534606934 -8.138999938964844,-10.461999893188477 -8.138999938964844,-10.461999893188477 C-8.138999938964844,-10.461999893188477 -8.168999671936035,-10.96399974822998 -8.168999671936035,-10.96399974822998 C-8.168999671936035,-10.96399974822998 -8.381999969482422,-14.519000053405762 -8.381999969482422,-14.519000053405762 C-8.381999969482422,-14.519000053405762 -5.4019999504089355,-12.550999641418457 -5.4019999504089355,-12.550999641418457 C-5.4019999504089355,-12.550999641418457 -4.982999801635742,-12.27400016784668 -4.982999801635742,-12.27400016784668 C-4.982999801635742,-12.27400016784668 -4.511000156402588,-12.444999694824219 -4.511000156402588,-12.444999694824219 C-3.7920000553131104,-12.706000328063965 -3.053999900817871,-12.904000282287598 -2.318000078201294,-13.034000396728516 C-2.318000078201294,-13.034000396728516 -1.8229999542236328,-13.121999740600586 -1.8229999542236328,-13.121999740600586 C-1.8229999542236328,-13.121999740600586 -1.5980000495910645,-13.571999549865723 -1.5980000495910645,-13.571999549865723 C-1.5980000495910645,-13.571999549865723 0,-16.763999938964844 0,-16.763999938964844z M0,-19 C0,-19 -2.490999937057495,-14.019000053405762 -2.490999937057495,-14.019000053405762 C-3.305000066757202,-13.875 -4.0920000076293945,-13.66100025177002 -4.85099983215332,-13.385000228881836 C-4.85099983215332,-13.385000228881836 -9.5,-16.454999923706055 -9.5,-16.454999923706055 C-9.5,-16.454999923706055 -9.166999816894531,-10.902999877929688 -9.166999816894531,-10.902999877929688 C-9.793999671936035,-10.375 -10.375,-9.793999671936035 -10.902999877929688,-9.166999816894531 C-10.902999877929688,-9.166999816894531 -16.45400047302246,-9.5 -16.45400047302246,-9.5 C-16.45400047302246,-9.5 -13.383999824523926,-4.85099983215332 -13.383999824523926,-4.85099983215332 C-13.659000396728516,-4.091000080108643 -13.87399959564209,-3.303999900817871 -14.017999649047852,-2.490999937057495 C-14.017999649047852,-2.490999937057495 -19,0 -19,0 C-19,0 -14.019000053405762,2.490999937057495 -14.019000053405762,2.490999937057495 C-13.875,3.305000066757202 -13.66100025177002,4.0920000076293945 -13.385000228881836,4.85099983215332 C-13.385000228881836,4.85099983215332 -16.45400047302246,9.5 -16.45400047302246,9.5 C-16.45400047302246,9.5 -10.902000427246094,9.166999816894531 -10.902000427246094,9.166999816894531 C-10.37399959564209,9.793999671936035 -9.793000221252441,10.375 -9.166000366210938,10.902999877929688 C-9.166000366210938,10.902999877929688 -9.5,16.45400047302246 -9.5,16.45400047302246 C-9.5,16.45400047302246 -4.85099983215332,13.383999824523926 -4.85099983215332,13.383999824523926 C-4.091000080108643,13.65999984741211 -3.303999900817871,13.87399959564209 -2.490999937057495,14.017999649047852 C-2.490999937057495,14.017999649047852 0,19 0,19 C0,19 2.490999937057495,14.019000053405762 2.490999937057495,14.019000053405762 C3.305000066757202,13.875 4.0920000076293945,13.66100025177002 4.85099983215332,13.385000228881836 C4.85099983215332,13.385000228881836 9.5,16.454999923706055 9.5,16.454999923706055 C9.5,16.454999923706055 9.166999816894531,10.902999877929688 9.166999816894531,10.902999877929688 C9.793999671936035,10.375 10.375,9.793999671936035 10.902999877929688,9.166999816894531 C10.902999877929688,9.166999816894531 16.454999923706055,9.5 16.454999923706055,9.5 C16.454999923706055,9.5 13.385000228881836,4.85099983215332 13.385000228881836,4.85099983215332 C13.65999984741211,4.091000080108643 13.875,3.303999900817871 14.019000053405762,2.490999937057495 C14.019000053405762,2.490999937057495 19,0 19,0 C19,0 14.019000053405762,-2.490999937057495 14.019000053405762,-2.490999937057495 C13.875,-3.305000066757202 13.66100025177002,-4.0920000076293945 13.385000228881836,-4.85099983215332 C13.385000228881836,-4.85099983215332 16.454999923706055,-9.5 16.454999923706055,-9.5 C16.454999923706055,-9.5 10.902999877929688,-9.166999816894531 10.902999877929688,-9.166999816894531 C10.375,-9.793999671936035 9.793999671936035,-10.375 9.166999816894531,-10.902999877929688 C9.166999816894531,-10.902999877929688 9.5,-16.454999923706055 9.5,-16.454999923706055 C9.5,-16.454999923706055 4.85099983215332,-13.385000228881836 4.85099983215332,-13.385000228881836 C4.091000080108643,-13.66100025177002 3.303999900817871,-13.875 2.490999937057495,-14.019000053405762 C2.490999937057495,-14.019000053405762 0,-19 0,-19z"></path></g><g opacity="1" transform="matrix(1,0,0,1,20,20)"><path fill="#F5CE85" fill-opacity="1" d=" M0,-10 C-5.5229997634887695,-10 -10,-5.5229997634887695 -10,0 C-10,5.521999835968018 -5.5229997634887695,10 0,10 C5.521999835968018,10 10,5.521999835968018 10,0 C10,-5.5229997634887695 5.521999835968018,-10 0,-10z"></path></g></g><g transform="matrix(1,0,0,1,0,0)" opacity="1" style="display: block;"><g opacity="1" transform="matrix(1,0,0,1,20,28.5)"><path fill="#E1EBF2" fill-opacity="1" d=" M8.854984283447266,5.5 C8.854984283447266,5.5 8.626297950744629,5.536425590515137 8.626297950744629,5.536425590515137 C8.944297790527344,5.116425514221191 8.803996086120605,4.677648067474365 8.803996086120605,4.113647937774658 C8.803996086120605,2.738647937774658 7.897550106048584,1.5 6.522550106048584,1.5 C6.522550106048584,1.5 4.053951740264893,1.5 4.053951740264893,1.5 C4.371952056884766,1.0800000429153442 4.5689520835876465,0.5640000104904175 4.5689520835876465,0 C4.5689520835876465,-0.5640000104904175 5.068410396575928,-1.4508131742477417 3.8018863201141357,-1.5 C3.8018863201141357,-1.5 3.8168864250183105,-1.5 3.8168864250183105,-1.5 C5.1918864250183105,-1.5 6.3168864250183105,-2.625 6.3168864250183105,-4 C6.3168864250183105,-5.375 5.1918864250183105,-6.5 3.8168864250183105,-6.5 C3.8168864250183105,-6.5 -0.21726977825164795,-6.5 -0.21726977825164795,-6.5 C0.10073022544384003,-6.920000076293945 0.2977302372455597,-7.435999870300293 0.2977302372455597,-8 C0.2977302372455597,-9.375 -0.8272697925567627,-10.5 -2.2022697925567627,-10.5 C-2.2022697925567627,-10.5 -14.150545120239258,-10.505099296569824 -14.150545120239258,-10.505099296569824 C-15.525545120239258,-10.505099296569824 -16.650545120239258,-9.380099296569824 -16.650545120239258,-8.005099296569824 C-16.650545120239258,-6.630099773406982 -15.525545120239258,-5.505099773406982 -14.150545120239258,-5.505099773406982 C-14.150545120239258,-5.505099773406982 -13.218595504760742,-5.505099773406982 -13.218595504760742,-5.505099773406982 C-13.536596298217773,-5.085099697113037 -13.733595848083496,-4.569099426269531 -13.733595848083496,-4.005099773406982 C-13.733595848083496,-3.3660995960235596 -13.628569602966309,-2.7859139442443848 -13.23157024383545,-2.34291410446167 C-14.187569618225098,-1.9909141063690186 -17.688444137573242,-2.010410785675049 -17.724870681762695,0 C-17.732154846191406,0.5640000104904175 -17.527870178222656,1.0800000429153442 -17.209871292114258,1.5 C-17.209871292114258,1.5 -12.588613510131836,1.5 -12.588613510131836,1.5 C-13.963613510131836,1.5 -15.088613510131836,2.625 -15.088613510131836,4 C-15.088613510131836,5.375 -13.963613510131836,6.5 -12.588613510131836,6.5 C-12.588613510131836,6.5 -15.546940803527832,6.5 -15.546940803527832,6.5 C-15.864940643310547,6.920000076293945 -16.061941146850586,7.435999870300293 -16.061941146850586,8 C-16.061941146850586,9.375 -14.93694019317627,10.5 -13.56194019317627,10.5 C-13.56194019317627,10.5 8.83240032196045,10.5 8.83240032196045,10.5 C10.20740032196045,10.5 11.33240032196045,9.375 11.33240032196045,8 C11.33240032196045,6.625 10.229984283447266,5.5 8.854984283447266,5.5z"></path></g></g><g clip-path="url(#__lottie_element_7)" transform="matrix(1,0,0,1,0,0)" opacity="1" style="display: block;"><g opacity="1" transform="matrix(1,0,0,1,20,28.5)"><path fill="#F2FAFF" fill-opacity="1" d=" M8.854984283447266,5.5 C8.854984283447266,5.5 8.626297950744629,5.536425590515137 8.626297950744629,5.536425590515137 C8.944297790527344,5.116425514221191 8.803996086120605,4.677648067474365 8.803996086120605,4.113647937774658 C8.803996086120605,2.738647937774658 7.897550106048584,1.5 6.522550106048584,1.5 C6.522550106048584,1.5 4.053951740264893,1.5 4.053951740264893,1.5 C4.371952056884766,1.0800000429153442 4.5689520835876465,0.5640000104904175 4.5689520835876465,0 C4.5689520835876465,-0.5640000104904175 5.068410396575928,-1.4508131742477417 3.8018863201141357,-1.5 C3.8018863201141357,-1.5 3.8168864250183105,-1.5 3.8168864250183105,-1.5 C5.1918864250183105,-1.5 6.3168864250183105,-2.625 6.3168864250183105,-4 C6.3168864250183105,-5.375 5.1918864250183105,-6.5 3.8168864250183105,-6.5 C3.8168864250183105,-6.5 -0.21726977825164795,-6.5 -0.21726977825164795,-6.5 C0.10073022544384003,-6.920000076293945 0.2977302372455597,-7.435999870300293 0.2977302372455597,-8 C0.2977302372455597,-9.375 -0.8272697925567627,-10.5 -2.2022697925567627,-10.5 C-2.2022697925567627,-10.5 -14.150545120239258,-10.505099296569824 -14.150545120239258,-10.505099296569824 C-15.525545120239258,-10.505099296569824 -16.650545120239258,-9.380099296569824 -16.650545120239258,-8.005099296569824 C-16.650545120239258,-6.630099773406982 -15.525545120239258,-5.505099773406982 -14.150545120239258,-5.505099773406982 C-14.150545120239258,-5.505099773406982 -13.218595504760742,-5.505099773406982 -13.218595504760742,-5.505099773406982 C-13.536596298217773,-5.085099697113037 -13.733595848083496,-4.569099426269531 -13.733595848083496,-4.005099773406982 C-13.733595848083496,-3.3660995960235596 -13.628569602966309,-2.7859139442443848 -13.23157024383545,-2.34291410446167 C-14.187569618225098,-1.9909141063690186 -17.688444137573242,-2.010410785675049 -17.724870681762695,0 C-17.732154846191406,0.5640000104904175 -17.527870178222656,1.0800000429153442 -17.209871292114258,1.5 C-17.209871292114258,1.5 -12.588613510131836,1.5 -12.588613510131836,1.5 C-13.963613510131836,1.5 -15.088613510131836,2.625 -15.088613510131836,4 C-15.088613510131836,5.375 -13.963613510131836,6.5 -12.588613510131836,6.5 C-12.588613510131836,6.5 -15.546940803527832,6.5 -15.546940803527832,6.5 C-15.864940643310547,6.920000076293945 -16.061941146850586,7.435999870300293 -16.061941146850586,8 C-16.061941146850586,9.375 -14.93694019317627,10.5 -13.56194019317627,10.5 C-13.56194019317627,10.5 8.83240032196045,10.5 8.83240032196045,10.5 C10.20740032196045,10.5 11.33240032196045,9.375 11.33240032196045,8 C11.33240032196045,6.625 10.229984283447266,5.5 8.854984283447266,5.5z"></path></g></g><g transform="matrix(1,0,0,1,0,0)" opacity="1" style="display: block;"><g opacity="1" transform="matrix(1,0,0,1,6,24.5)"><path stroke-linecap="butt" stroke-linejoin="miter" fill-opacity="0" stroke-miterlimit="4" stroke="#B0C1D4" stroke-opacity="1" stroke-width="1" d=" M3.389897346496582,2 C3.389897346496582,2 2.389897346496582,2 2.389897346496582,2 C1.2858972549438477,2 0.38989725708961487,1.1039999723434448 0.38989725708961487,0 C0.38989725708961487,-1.1039999723434448 1.2858972549438477,-2 2.389897346496582,-2 C2.389897346496582,-2 3.389897346496582,-2 3.389897346496582,-2"></path></g><g opacity="1" transform="matrix(1,0,0,1,21.5,24.5)"><path stroke-linecap="butt" stroke-linejoin="miter" fill-opacity="0" stroke-miterlimit="4" stroke="#B0C1D4" stroke-opacity="1" stroke-width="1" d=" M-5.673583030700684,-2 C-5.673583030700684,-2 2.7466609477996826,-2 2.7466609477996826,-2 C3.850661039352417,-2 4.746661186218262,-1.1039999723434448 4.746661186218262,0 C4.746661186218262,1.1039999723434448 3.850661039352417,2 2.7466609477996826,2 C2.7466609477996826,2 0.2915329039096832,2 0.2915329039096832,2"></path></g><g opacity="1" transform="matrix(1,0,0,1,5.5,28.5)"><path stroke-linecap="butt" stroke-linejoin="miter" fill-opacity="0" stroke-miterlimit="4" stroke="#B0C1D4" stroke-opacity="1" stroke-width="1" d=" M2.24753999710083,2 C2.24753999710083,2 -1.3898720741271973,2 -1.3898720741271973,2 C-2.471872091293335,2 -3.347872018814087,1.1230000257492065 -3.347872018814087,0.041999999433755875 C-3.347872018814087,0.041999999433755875 -3.347872018814087,-0.041999999433755875 -3.347872018814087,-0.041999999433755875 C-3.347872018814087,-1.1230000257492065 -2.471872091293335,-2 -1.3898720741271973,-2 C-1.3898720741271973,-2 4.148508071899414,-2 4.148508071899414,-2"></path></g><g opacity="1" transform="matrix(1,0,0,1,25,28.5)"><path stroke-linecap="butt" stroke-linejoin="miter" fill-opacity="0" stroke-miterlimit="4" stroke="#B0C1D4" stroke-opacity="1" stroke-width="1" d=" M-3.395781993865967,-2 C-3.395781993865967,-2 -2.3537819385528564,-2 -2.3537819385528564,-2 C-1.2727819681167603,-2 -0.3957819938659668,-1.1230000257492065 -0.3957819938659668,-0.041999999433755875 C-0.3957819938659668,-0.041999999433755875 -0.3957819938659668,0.041999999433755875 -0.3957819938659668,0.041999999433755875 C-0.3957819938659668,1.1230000257492065 -1.2727819681167603,2 -2.3537819385528564,2 C-2.3537819385528564,2 -3.395781993865967,2 -3.395781993865967,2"></path></g><g opacity="1" transform="matrix(1,0,0,1,6,32.5)"><path stroke-linecap="butt" stroke-linejoin="miter" fill-opacity="0" stroke-miterlimit="4" stroke="#B0C1D4" stroke-opacity="1" stroke-width="1" d=" M3.8676815032958984,2 C3.8676815032958984,2 1.2962477207183838,2 1.2962477207183838,2 C0.19224770367145538,2 -0.7037522792816162,1.1039999723434448 -0.7037522792816162,0 C-0.7037522792816162,-1.1039999723434448 0.19224770367145538,-2 1.2962477207183838,-2 C1.2962477207183838,-2 3.128171443939209,-2 3.128171443939209,-2"></path></g><g opacity="1" transform="matrix(1,0,0,1,29,32.5)"><path stroke-linecap="butt" stroke-linejoin="miter" fill-opacity="0" stroke-miterlimit="4" stroke="#B0C1D4" stroke-opacity="1" stroke-width="1" d=" M-9.807085990905762,-2 C-9.807085990905762,-2 -2.4135804176330566,-2 -2.4135804176330566,-2 C-1.3095805644989014,-2 -0.4135805368423462,-1.1039999723434448 -0.4135805368423462,0 C-0.4135805368423462,1.1039999723434448 -1.3095805644989014,2 -2.4135804176330566,2 C-2.4135804176330566,2 -3.4135804176330566,2 -3.4135804176330566,2"></path></g><g opacity="1" transform="matrix(1,0,0,1,23,36.5)"><path stroke-linecap="butt" stroke-linejoin="miter" fill-opacity="0" stroke-miterlimit="4" stroke="#B0C1D4" stroke-opacity="1" stroke-width="1" d=" M3.1085119247436523,-1.9993261098861694 C3.1085119247436523,-1.9993261098861694 6.106245994567871,-1.9993261098861694 6.106245994567871,-1.9993261098861694 C7.176246166229248,-1.9993261098861694 8.044919967651367,-1.1313260793685913 8.044919967651367,-0.06132606416940689 C8.044919967651367,-0.06132606416940689 8.044919967651367,0.06267393380403519 8.044919967651367,0.06267393380403519 C8.044919967651367,1.132673978805542 7.176246166229248,2.00067400932312 6.106245994567871,2.00067400932312 C6.106245994567871,2.00067400932312 -17.184406280517578,2 -17.184406280517578,2 C-18.254405975341797,2 -19.122406005859375,1.1319999694824219 -19.122406005859375,0.06199999898672104 C-19.122406005859375,0.06199999898672104 -19.122406005859375,-0.06199999898672104 -19.122406005859375,-0.06199999898672104 C-19.122406005859375,-1.1319999694824219 -18.254405975341797,-2 -17.184406280517578,-2 C-17.184406280517578,-2 -14.14305591583252,-2 -14.14305591583252,-2"></path></g><g opacity="1" transform="matrix(1,0,0,1,9.5,20.5)"><path stroke-linecap="butt" stroke-linejoin="miter" fill-opacity="0" stroke-miterlimit="4" stroke="#B0C1D4" stroke-opacity="1" stroke-width="1" d=" M0.0009399280534125865,2 C0.0009399280534125865,2 -3.8885583877563477,2 -3.8885583877563477,2 C-4.993558406829834,2 -5.888558387756348,1.1039999723434448 -5.888558387756348,0 C-5.888558387756348,-1.1039999723434448 -4.993558406829834,-2 -3.8885583877563477,-2 C-3.8885583877563477,-2 9.038103103637695,-2.001347780227661 9.038103103637695,-2.001347780227661 C10.14210319519043,-2.001347780227661 11.038103103637695,-1.1053478717803955 11.038103103637695,-0.0013478719629347324 C11.038103103637695,0.9260218143463135 10.405385971069336,1.7070436477661133 9.54866886138916,1.9326739311218262 C9.385364532470703,1.9756520986557007 9.214734077453613,1.9986521005630493 9.038103103637695,1.9986521005630493 C9.038103103637695,1.9986521005630493 8.038103103637695,1.9986521005630493 8.038103103637695,1.9986521005630493"></path></g></g></g></svg>